<svg xmlns="http://www.w3.org/2000/svg" xmlns:xlink="http://www.w3.org/1999/xlink" version="1.1" x="0px" y="0px"
  viewBox="0 0 100 125" enable-background="new 0 0 100 100" xml:space="preserve">
  <path style="fill:#fff"
    d="M20.078,46.863H8.138c-0.972,0-1.759,0.787-1.759,1.76c0,0.972,0.787,1.759,1.759,1.759h11.94V46.863z" />
  <path style="fill:#fff"
    d="M91.862,46.862h-11.94v3.52h11.94c0.973,0,1.759-0.787,1.759-1.76C93.621,47.65,92.835,46.862,91.862,46.862z" />
  <path style="fill:#fff" d="M51.76,6.76C51.76,5.789,50.971,5,50,5s-1.76,0.789-1.76,1.76v11.939h3.52V6.76z" />
  <path style="fill:#fff"
    d="M52.785,36.453c4.646,1.056,8.331,4.74,9.384,9.384c0.164,0.725,0.806,1.215,1.52,1.215c0.114,0,0.229-0.014,0.346-0.039  c0.839-0.19,1.365-1.024,1.176-1.864c-1.32-5.812-5.926-10.418-11.736-11.736c-0.839-0.19-1.673,0.335-1.863,1.177  C51.419,35.428,51.943,36.262,52.785,36.453z" />
  <path style="fill:#fff"
    d="M26.857,47.884c0,6.196,2.968,11.075,6.111,16.243c2.641,4.345,5.368,8.839,6.414,14.296h-0.259  c-1.03,0-1.866,0.834-1.866,1.863c0,1.032,0.836,1.866,1.866,1.866h21.754c1.032,0,1.866-0.834,1.866-1.866  c0-1.029-0.834-1.863-1.866-1.863H60.62c1.046-5.464,3.772-9.954,6.414-14.299c3.141-5.166,6.107-10.045,6.107-16.24  c0-12.761-10.381-23.142-23.142-23.142S26.857,35.123,26.857,47.884z M50,27.742c11.106,0,20.142,9.035,20.142,20.142  c0,5.355-2.755,9.886-5.672,14.685c-2.797,4.599-5.688,9.354-6.821,15.401c-0.029,0.154-0.025,0.306-0.008,0.453H42.362  c0.018-0.147,0.021-0.299-0.008-0.453c-1.131-6.041-4.024-10.8-6.823-15.403c-2.917-4.797-5.673-9.327-5.673-14.683  C29.857,36.777,38.894,27.742,50,27.742z" />
  <path style="fill:#fff"
    d="M19.156,79.467c0.687,0.688,1.801,0.688,2.488,0.001l8.443-8.443l-2.488-2.487l-8.443,8.442  C18.468,77.666,18.468,78.779,19.156,79.467z" />
  <path style="fill:#fff"
    d="M80.845,17.777c-0.688-0.688-1.8-0.689-2.488-0.001l-8.442,8.442l2.488,2.489l8.442-8.442  C81.532,19.577,81.531,18.465,80.845,17.777z" />
  <path style="fill:#fff"
    d="M78.357,79.467c0.688,0.688,1.8,0.687,2.487,0c0.688-0.688,0.688-1.801,0.001-2.488l-8.442-8.442l-2.488,2.487  L78.357,79.467z" />
  <path style="fill:#fff"
    d="M19.156,17.777c-0.687,0.688-0.688,1.8-0.001,2.488l8.443,8.442l2.489-2.489l-8.443-8.442  C20.957,17.088,19.843,17.09,19.156,17.777z" />
  <path style="fill:#fff"
    d="M62.743,86.709c0-1.029-0.834-1.862-1.866-1.862H39.123c-1.03,0-1.866,0.833-1.866,1.862c0,1.032,0.836,1.867,1.866,1.867  h21.754C61.909,88.576,62.743,87.741,62.743,86.709z" />
  <path style="fill:#fff"
    d="M43.267,91.271c-1.03,0-1.866,0.834-1.866,1.862c0,1.032,0.836,1.867,1.866,1.867h13.465c1.032,0,1.866-0.835,1.866-1.867  c0-1.028-0.834-1.862-1.866-1.862H43.267z" />
</svg>
