<svg xmlns="http://www.w3.org/2000/svg" xmlns:xlink="http://www.w3.org/1999/xlink" version="1.1" x="0px" y="0px"
  viewBox="0 0 100 125" enable-background="new 0 0 100 100" xml:space="preserve">
  <path style="fill:#fff"
    d="M60.87,36.181c6.112,6.203,12.405,8.772,12.728,13.788c0.249,3.902-6.116,7.41-12.229,13.613  C41.499,83.75,36.666,85.003,43.938,92.521c5.926,6.124,11.215,0.176,30.907-18.475c10.418-9.868,16.839-15.915,19.127-20.613  c0.664-1.136,0.974-2.274,0.943-3.468c0.03-1.195-0.279-2.331-0.942-3.468c-2.288-4.697-8.709-10.744-19.128-20.612  C55.153,7.233,50.034,1.453,43.939,7.409C36.416,14.759,41,16.013,60.87,36.181z M58.534,53.433c0.662-1.136,0.972-2.274,0.94-3.468  c0.031-1.195-0.278-2.331-0.94-3.468c-2.289-4.697-8.71-10.744-19.129-20.612C19.713,7.233,14.593,1.453,8.5,7.408  C0.976,14.759,5.56,16.013,25.43,36.181c6.112,6.203,12.406,8.772,12.727,13.788c0.249,3.902-6.116,7.41-12.229,13.613  C6.06,83.75,1.225,85.003,8.499,92.521c5.926,6.124,11.215,0.176,30.906-18.475C49.822,64.178,56.245,58.131,58.534,53.433z" />
</svg>
