<svg xmlns="http://www.w3.org/2000/svg" data-name="Layer 1" viewBox="0 0 100 125" x="0px" y="0px">
  <title>14</title>
  <g data-name="Group">
    <path style="fill:#fff" data-name="Compound Path"
      d="M71.9,44.5l.5.5L82.5,33.2,49.8,5.2,17,33.2,27.1,45l.5-.5v2.6H1.6V94.8H98.4V47.1H71.9Zm-45-10.6L49.8,14.4,72.6,33.9l-1,1.1L49.8,16.4,27.9,35.1ZM8.6,87.8V54.1H27.6V87.8Zm45.3,0H45.7v-7h8.2Zm7,0v-14H38.7v14h-4V38.5L49.8,25.6,64.9,38.5V87.8ZM91.4,54.1V87.8H71.9V54.1Z" />
    <rect style="fill:#fff" data-name="Path" x="38.6" y="63.1" width="22.3" height="7" />
    <rect style="fill:#fff" data-name="Path" x="10" y="57.7" width="7" height="10.8" />
    <rect style="fill:#fff" data-name="Path" x="19" y="57.7" width="7" height="10.8" />
    <rect style="fill:#fff" data-name="Path" x="10" y="72.5" width="7" height="10.8" />
    <rect style="fill:#fff" data-name="Path" x="19" y="72.5" width="7" height="10.8" />
    <rect style="fill:#fff" data-name="Path" x="73.8" y="57.7" width="7" height="10.8" />
    <rect style="fill:#fff" data-name="Path" x="82.8" y="57.7" width="7" height="10.8" />
    <rect style="fill:#fff" data-name="Path" x="73.8" y="72.5" width="7" height="10.8" />
    <rect style="fill:#fff" data-name="Path" x="82.8" y="72.5" width="7" height="10.8" />
    <path style="fill:#fff" data-name="Compound Path"
      d="M50,58.4A8.4,8.4,0,1,0,41.6,50,8.4,8.4,0,0,0,50,58.4Zm0-9.7A1.4,1.4,0,1,1,48.6,50,1.4,1.4,0,0,1,50,48.6Z" />
  </g>
</svg>
