<svg xmlns="http://www.w3.org/2000/svg" xmlns:xlink="http://www.w3.org/1999/xlink" version="1.1" x="0px" y="0px"
  viewBox="0 0 100 125" style="enable-background:new 0 0 100 100;" xml:space="preserve">
  <g>
    <path style="fill:#fff"
      d="M24.1,70.7c-0.2,0-0.4,0.1-0.6,0.2L6.5,84c-0.3,0.3-0.5,0.7-0.3,1.1s0.5,0.7,0.9,0.7h28h29.6h0.1h27.9   c0.4,0,0.8-0.3,0.9-0.7s0-0.9-0.3-1.1L76.5,70.9c-0.2-0.1-0.4-0.2-0.6-0.2H59.8h-0.1h-1.1c6.6-7.4,14.7-19.1,14.7-33.1   c0-12.9-10.4-23.3-23.3-23.3c-12.9,0-23.3,10.4-23.3,23.3c0,14,8.1,25.8,14.7,33.1h-1.2H24.1z M50,25.3c6.7,0,12.1,5.4,12.1,12.1   c0,6.7-5.4,12.1-12.1,12.1c-6.7,0-12.1-5.4-12.1-12.1C37.9,30.7,43.4,25.3,50,25.3z M50,78.8c0,0,2.9-2.2,6.7-6.1h2.3l4.3,11.1   H36.6l4.3-11.1h2.4C47.1,76.6,50,78.8,50,78.8z M75.6,72.7l14.4,11.1H65.5l-4.3-11.1H75.6z M38.8,72.7l-4.3,11.1H10.1l14.4-11.1   H38.8z" />
  </g>
</svg>
